# xmcd
#
# Track frame offsets:
#  150
#  20887
#  35064
#  55726
#  74997
#  85571
#  104805
#  132289
#  150429
#  163950
#  186745
#  206806
#  222654
#  243989
#
# Disc length: 3874 seconds
#
# Revision: 0
# Processed by: cddbd v1.5.2PL0 Copyright (c) Steve Scherf et al.
# Submitted via: AltoMP3_Maker 3.0
#
DISCID=e20f200e
DTITLE=Todd Snider - Viva Satellite
DYEAR=1900
DGENRE=
TTITLE0=Rocket Fuel
TTITLE1=Yesterdays and Used to Be's
TTITLE2=Joker
TTITLE3=I Am Too
TTITLE4=I Am Two
TTITLE5=Out All Night
TTITLE6=Guaranteed
TTITLE7=Can't Complain
TTITLE8=Positive Negitive
TTITLE9=Once He Finds Us
TTITLE10=Godsend
TTITLE11=Comin' Down
TTITLE12=Never Let me Down
TTITLE13=Doublewide Blues
EXTD=
EXTT0=
EXTT1=
EXTT2=
EXTT3=
EXTT4=
EXTT5=
EXTT6=
EXTT7=
EXTT8=
EXTT9=
EXTT10=
EXTT11=
EXTT12=
EXTT13=
PLAYORDER=
